<svg width="24" height="24" viewBox="0 0 24 24" fill="none" xmlns="http://www.w3.org/2000/svg">
<path d="M8.64022 15.3552C8.3503 15.0653 8.3503 14.5845 8.64022 14.2946L10.7615 12.1733L8.10989 9.52161C7.72098 9.1327 7.08458 9.1327 6.69567 9.52161L5.11882 11.0985C2.89144 13.3258 2.7783 17.0877 5.08347 19.2231C6.13706 20.1919 7.47349 20.6798 8.81699 20.6798C10.2241 20.6727 11.6313 20.1424 12.7061 19.0676L14.4738 17.2998C14.8628 16.9109 14.8628 16.2745 14.4738 15.8856L11.8222 13.2339L9.70088 15.3552C9.41096 15.6452 8.93013 15.6452 8.64022 15.3552Z" fill="#8696BB"/>
<path d="M15.1805 3.31331C13.7733 3.32039 12.3662 3.85072 11.2914 4.92552L9.52363 6.69328C9.13473 7.08219 9.13473 7.71859 9.52363 8.1075L12.1753 10.7591L14.2966 8.63783C14.5865 8.34791 15.0674 8.34791 15.3573 8.63783C15.6472 8.92774 15.6472 9.40857 15.3573 9.69849L13.2359 11.8198L15.8876 14.4715C16.2765 14.8604 16.9129 14.8604 17.3018 14.4715L18.8787 12.8946C21.106 10.6672 21.2192 6.90542 18.9069 4.77703C17.8604 3.80122 16.5169 3.32039 15.1805 3.31331Z" fill="#8696BB"/>
<path d="M12.1753 10.7591L10.7611 12.1733L11.8218 13.234L13.236 11.8198L12.1753 10.7591Z" fill="#8696BB"/>
</svg>
