<svg width="25" height="24" viewBox="0 0 25 24" fill="none" xmlns="http://www.w3.org/2000/svg">
<path d="M12.4936 10.87C12.3936 10.86 12.2736 10.86 12.1636 10.87C9.78355 10.79 7.89355 8.84 7.89355 6.44C7.89355 3.99 9.87355 2 12.3336 2C14.7836 2 16.7736 3.99 16.7736 6.44C16.7636 8.84 14.8736 10.79 12.4936 10.87Z" fill="#63B4FF" stroke="#63B4FF" stroke-width="1.5" stroke-linecap="round" stroke-linejoin="round"/>
<path d="M7.49347 14.56C5.07347 16.18 5.07347 18.82 7.49347 20.43C10.2435 22.27 14.7535 22.27 17.5035 20.43C19.9235 18.81 19.9235 16.17 17.5035 14.56C14.7635 12.73 10.2535 12.73 7.49347 14.56Z" fill="#63B4FF" stroke="#63B4FF" stroke-width="1.5" stroke-linecap="round" stroke-linejoin="round"/>
</svg>
