<svg width="25" height="24" viewBox="0 0 25 24" fill="none" xmlns="http://www.w3.org/2000/svg">
<path d="M12.8268 10.87C12.7268 10.86 12.6068 10.86 12.4968 10.87C10.1168 10.79 8.22681 8.84 8.22681 6.44C8.22681 3.99 10.2068 2 12.6668 2C15.1168 2 17.1068 3.99 17.1068 6.44C17.0968 8.84 15.2068 10.79 12.8268 10.87Z" stroke="#8696BB" stroke-width="1.5" stroke-linecap="round" stroke-linejoin="round"/>
<path d="M7.82672 14.56C5.40672 16.18 5.40672 18.82 7.82672 20.43C10.5767 22.27 15.0867 22.27 17.8367 20.43C20.2567 18.81 20.2567 16.17 17.8367 14.56C15.0967 12.73 10.5867 12.73 7.82672 14.56Z" stroke="#8696BB" stroke-width="1.5" stroke-linecap="round" stroke-linejoin="round"/>
</svg>
