<svg width="25" height="24" viewBox="0 0 25 24" fill="none" xmlns="http://www.w3.org/2000/svg">
<path d="M17.4166 3.56V2C17.4166 1.59 17.0766 1.25 16.6666 1.25C16.2566 1.25 15.9166 1.59 15.9166 2V3.5H9.41661V2C9.41661 1.59 9.07661 1.25 8.66661 1.25C8.25661 1.25 7.91661 1.59 7.91661 2V3.56C5.21661 3.81 3.90661 5.42 3.70661 7.81C3.68661 8.1 3.92661 8.34 4.20661 8.34H21.1266C21.4166 8.34 21.6566 8.09 21.6266 7.81C21.4266 5.42 20.1166 3.81 17.4166 3.56Z" fill="#63B4FF"/>
<path d="M20.6666 9.83984H4.66663C4.11663 9.83984 3.66663 10.2898 3.66663 10.8398V16.9998C3.66663 19.9998 5.16663 21.9998 8.66663 21.9998H16.6666C20.1666 21.9998 21.6666 19.9998 21.6666 16.9998V10.8398C21.6666 10.2898 21.2166 9.83984 20.6666 9.83984ZM9.87663 18.2098C9.77663 18.2998 9.66663 18.3698 9.54663 18.4198C9.42663 18.4698 9.29663 18.4998 9.16663 18.4998C9.03663 18.4998 8.90663 18.4698 8.78663 18.4198C8.66663 18.3698 8.55663 18.2998 8.45663 18.2098C8.27663 18.0198 8.16663 17.7598 8.16663 17.4998C8.16663 17.2398 8.27663 16.9798 8.45663 16.7898C8.55663 16.6998 8.66663 16.6298 8.78663 16.5798C9.02663 16.4798 9.30663 16.4798 9.54663 16.5798C9.66663 16.6298 9.77663 16.6998 9.87663 16.7898C10.0566 16.9798 10.1666 17.2398 10.1666 17.4998C10.1666 17.7598 10.0566 18.0198 9.87663 18.2098ZM10.0866 14.3798C10.0366 14.4998 9.96663 14.6098 9.87663 14.7098C9.77663 14.7998 9.66663 14.8698 9.54663 14.9198C9.42663 14.9698 9.29663 14.9998 9.16663 14.9998C9.03663 14.9998 8.90663 14.9698 8.78663 14.9198C8.66663 14.8698 8.55663 14.7998 8.45663 14.7098C8.36663 14.6098 8.29663 14.4998 8.24663 14.3798C8.19663 14.2598 8.16663 14.1298 8.16663 13.9998C8.16663 13.8698 8.19663 13.7398 8.24663 13.6198C8.29663 13.4998 8.36663 13.3898 8.45663 13.2898C8.55663 13.1998 8.66663 13.1298 8.78663 13.0798C9.02663 12.9798 9.30663 12.9798 9.54663 13.0798C9.66663 13.1298 9.77663 13.1998 9.87663 13.2898C9.96663 13.3898 10.0366 13.4998 10.0866 13.6198C10.1366 13.7398 10.1666 13.8698 10.1666 13.9998C10.1666 14.1298 10.1366 14.2598 10.0866 14.3798ZM13.3766 14.7098C13.2766 14.7998 13.1666 14.8698 13.0466 14.9198C12.9266 14.9698 12.7966 14.9998 12.6666 14.9998C12.5366 14.9998 12.4066 14.9698 12.2866 14.9198C12.1666 14.8698 12.0566 14.7998 11.9566 14.7098C11.7766 14.5198 11.6666 14.2598 11.6666 13.9998C11.6666 13.7398 11.7766 13.4798 11.9566 13.2898C12.0566 13.1998 12.1666 13.1298 12.2866 13.0798C12.5266 12.9698 12.8066 12.9698 13.0466 13.0798C13.1666 13.1298 13.2766 13.1998 13.3766 13.2898C13.5566 13.4798 13.6666 13.7398 13.6666 13.9998C13.6666 14.2598 13.5566 14.5198 13.3766 14.7098Z" fill="#63B4FF"/>
</svg>
